<?xml version="1.0" standalone="no"?>
<!DOCTYPE svg PUBLIC "-//W3C//DTD SVG 20010904//EN"
 "http://www.w3.org/TR/2001/REC-SVG-20010904/DTD/svg10.dtd">
<svg version="1.0" xmlns="http://www.w3.org/2000/svg"
 width="750.000000pt" height="200.000000pt" viewBox="0 0 750.000000 200.000000"
 preserveAspectRatio="xMidYMid meet">

<g transform="translate(0.000000,200.000000) scale(0.100000,-0.100000)"
fill="#000000" stroke="none">
<path d="M542 988 c2 -497 4 -802 5 -678 2 129 8 229 13 234 7 7 10 -70 10
-222 l0 -232 135 0 135 0 2 138 2 137 6 -140 6 -140 2 134 c1 74 5 132 8 128
3 -3 6 -62 5 -131 l-2 -126 74 0 73 0 0 471 -1 471 142 -1 c107 -2 142 1 146
11 4 8 6 9 6 1 1 -8 8 -8 31 0 l30 11 2 136 2 135 3 -132 c2 -73 5 -133 7
-133 2 0 28 11 57 24 l54 24 -5 75 c-3 47 -1 72 4 67 5 -5 8 -37 7 -71 -2 -47
1 -60 11 -57 10 4 14 61 16 274 2 148 0 320 -3 382 l-7 112 -58 0 c-53 0 -59
-2 -63 -22 l-4 -23 -8 22 c-7 21 -12 21 -161 22 l-153 2 -4 -78 -3 -78 -2 78
-2 77 -45 0 -44 0 -3 -101 c-3 -96 -4 -102 -28 -117 -18 -11 -21 -12 -12 -2 8
9 12 49 12 117 0 97 -1 103 -21 103 -19 0 -20 -5 -18 -122 1 -83 -2 -123 -10
-126 -8 -3 -11 34 -11 122 l0 126 -50 0 -50 0 0 -170 c0 -107 4 -170 10 -170
6 0 10 -5 10 -11 0 -8 -5 -8 -15 1 -12 10 -15 43 -15 181 0 106 -4 169 -10
169 -6 0 -10 -62 -10 -165 0 -152 -1 -165 -19 -175 -11 -5 -21 -10 -23 -10 -2
0 -2 79 0 175 3 171 2 175 -18 175 -19 0 -20 -5 -20 -190 0 -120 -4 -190 -10
-190 -6 0 -10 70 -10 190 l0 190 -55 0 -55 0 2 -902z m786 667 c0 -38 -2 -62
-5 -52 -2 10 -10 17 -16 15 -7 -1 -21 1 -32 5 -17 6 -20 16 -20 57 -1 48 1 50
27 50 27 0 28 1 30 63 l1 62 7 -65 c4 -36 8 -96 8 -135z m-108 113 c0 -10 4
-18 9 -18 4 0 9 -23 10 -51 0 -42 -2 -50 -16 -47 -14 2 -16 14 -14 65 1 34 -3
72 -9 85 -11 22 -10 22 4 4 9 -11 16 -28 16 -38z m-343 -205 c-3 -10 -5 -2 -5
17 0 19 2 27 5 18 2 -10 2 -26 0 -35z m-80 5 c-3 -7 -5 -2 -5 12 0 14 2 19 5
13 2 -7 2 -19 0 -25z m140 -40 c-2 -13 -4 -5 -4 17 -1 22 1 32 4 23 2 -10 2
-28 0 -40z m-50 -35 c-3 -10 -5 -2 -5 17 0 19 2 27 5 18 2 -10 2 -26 0 -35z
m203 -33 c0 -16 -4 -30 -10 -30 -5 0 -10 14 -10 30 0 17 5 30 10 30 6 0 10
-13 10 -30z m22 -44 c-2 -31 -7 -56 -10 -56 -4 0 -6 17 -5 37 1 21 2 48 2 61
1 13 4 21 9 19 4 -3 5 -30 4 -61z m25 -48 c-3 -8 -6 -5 -6 6 -1 11 2 17 5 13
3 -3 4 -12 1 -19z m28 -12 c0 -29 -2 -33 -17 -25 -10 5 -18 12 -18 15 0 3 5 2
10 -1 6 -4 10 5 10 19 0 14 3 26 8 26 4 0 7 -15 7 -34z m-454 -119 c-8 -8 -11
7 -10 54 l1 64 10 -54 c7 -37 7 -56 -1 -64z m43 53 c0 -19 -5 -35 -10 -37 -5
-2 -9 15 -9 37 0 22 4 39 9 37 5 -2 10 -18 10 -37z m-67 -52 c-2 -13 -4 -5 -4
17 -1 22 1 32 4 23 2 -10 2 -28 0 -40z m463 -80 c0 -108 -18 -110 -21 -2 -2
63 4 94 17 94 2 0 4 -41 4 -92z m-43 -45 c-2 -21 -4 -4 -4 37 0 41 2 58 4 38
2 -21 2 -55 0 -75z m-128 0 c-1 -37 -1 -37 -8 -8 -7 28 -5 45 5 45 2 0 3 -17
3 -37z m-87 -77 c-3 -57 -6 -65 -29 -75 -23 -11 -25 -10 -14 3 7 9 11 22 8 30
-3 8 1 20 9 26 8 7 14 28 14 46 0 19 3 34 8 34 4 0 6 -29 4 -64z m141 34 c-3
-11 -7 -20 -9 -20 -2 0 -4 9 -4 20 0 11 4 20 9 20 5 0 7 -9 4 -20z m-105 -71
c-7 -5 -17 -8 -23 -8 -5 0 -4 3 3 6 6 2 12 13 12 23 0 10 3 27 8 37 5 14 8 10
10 -16 2 -20 -2 -37 -10 -42z m-250 -56 c-4 -35 -24 -41 -22 -6 3 35 2 33 15
33 6 0 9 -12 7 -27z m79 -30 c-3 -10 -5 -2 -5 17 0 19 2 27 5 18 2 -10 2 -26
0 -35z m-116 -21 c2 -31 -2 -57 -9 -64 -10 -10 -11 -5 -6 20 5 25 3 32 -9 32
-8 0 -18 -7 -21 -16 -9 -23 -26 -7 -26 25 0 21 7 31 33 43 17 9 33 15 34 14 1
0 3 -25 4 -54z m179 44 c0 -2 -7 -7 -16 -10 -8 -3 -12 -2 -9 4 6 10 25 14 25
6z m-30 -277 c-7 -11 -14 -18 -17 -15 -8 8 5 36 17 36 7 0 7 -6 0 -21z m-128
-115 c-5 -78 0 -78 53 2 31 46 41 55 63 52 22 -3 25 -7 25 -40 -1 -21 -2 -67
-2 -103 l-1 -65 -90 0 c-49 0 -90 2 -90 5 0 3 8 17 17 32 13 19 17 43 14 94
-2 58 2 89 13 89 1 0 0 -30 -2 -66z"/>
<path d="M1270 1658 c0 -9 5 -20 10 -23 13 -8 13 5 0 25 -8 13 -10 13 -10 -2z"/>
<path d="M1620 1828 c-1 -36 -7 -74 -15 -88 -20 -35 -19 -40 10 -40 l25 0 0
-380 0 -381 -165 3 -165 3 -2 -155 -2 -155 -6 153 -5 154 -36 -25 c-24 -16
-41 -22 -50 -16 -21 13 -179 11 -179 -2 0 -7 28 -10 85 -8 l85 4 -39 -17 c-29
-12 -45 -28 -61 -62 -13 -25 -26 -43 -30 -41 -4 3 -8 -109 -9 -248 -2 -197 -5
-258 -17 -281 -7 -16 -14 -31 -14 -33 0 -1 19 -3 43 -3 59 -1 81 -20 81 -73
-1 -40 -1 -41 3 -4 5 50 23 48 23 -3 l0 -40 76 0 c62 0 75 3 71 14 -5 12 11
15 80 18 73 3 86 0 94 -14 8 -14 23 -18 64 -18 l55 0 0 85 c0 50 4 85 10 85 6
0 10 -35 10 -85 l0 -85 135 0 135 0 0 164 c0 99 4 167 10 171 7 4 10 -53 10
-164 l0 -171 70 0 71 0 -1 207 c0 115 0 213 2 218 1 6 5 -89 8 -210 l6 -220 2
223 c1 122 6 222 10 222 5 0 9 305 8 678 0 372 -2 576 -3 452 l-3 -225 -53
-29 c-28 -16 -46 -23 -39 -15 7 8 12 42 12 88 l0 76 -61 -94 c-42 -66 -59
-101 -56 -118 4 -24 -8 -32 -16 -10 -2 7 -10 0 -17 -15 -7 -16 -16 -28 -19
-28 -3 0 -5 66 -4 147 l2 148 96 3 95 3 0 149 0 150 -100 0 -100 0 0 -146 c0
-102 -3 -145 -11 -142 -8 3 -11 50 -10 146 1 93 -2 142 -9 142 -6 0 -10 -48
-10 -136 0 -87 -4 -133 -10 -129 -6 4 -10 60 -10 136 0 161 -18 174 -23 17
l-3 -113 -2 113 -2 112 -65 0 -65 0 0 -62z m342 -434 c2 -19 0 -37 -4 -40 -4
-3 -8 13 -8 35 0 51 6 53 12 5z m2 -336 c7 -47 5 -54 -16 -70 -13 -10 -25 -18
-28 -18 -11 0 -2 62 9 70 7 4 12 18 11 31 -3 33 -1 39 9 39 5 0 12 -23 15 -52z
m33 -30 c-2 -13 -4 -5 -4 17 -1 22 1 32 4 23 2 -10 2 -28 0 -40z m-160 -35
c-3 -10 -5 -2 -5 17 0 19 2 27 5 18 2 -10 2 -26 0 -35z m-101 -59 c-3 -8 -9
-14 -14 -14 -10 0 -8 42 4 61 7 11 10 9 12 -9 2 -13 1 -30 -2 -38z m55 -37
c-8 -8 -11 -2 -11 19 0 40 14 54 18 19 2 -15 -1 -32 -7 -38z m-115 -3 c-3 -8
-10 -14 -16 -14 -14 0 -12 57 3 63 13 4 22 -26 13 -49z m-236 -96 l-5 -113 -3
107 -3 107 -42 4 c-42 3 -42 4 8 5 l50 2 -5 -112z m266 56 c-9 -23 -25 -16
-19 9 10 44 16 53 21 29 2 -13 1 -30 -2 -38z m-213 39 c-9 -3 -13 -30 -13 -84
0 -70 2 -78 18 -72 14 5 13 3 -3 -10 -11 -9 -23 -17 -26 -17 -4 0 -7 43 -8 95
-2 93 -2 95 21 94 13 0 17 -3 11 -6z m137 -58 c0 -19 -2 -35 -4 -35 -2 0 -6
16 -8 35 -2 19 0 35 4 35 4 0 8 -16 8 -35z m460 -75 c0 -66 -1 -70 -22 -70
-21 0 -23 4 -22 56 1 41 6 59 20 69 11 8 20 15 22 15 1 0 2 -31 2 -70z m-186
-53 c-3 -8 -11 -14 -19 -14 -11 0 -12 4 -4 14 6 7 15 13 20 13 5 0 6 -6 3 -13z
m56 -59 c0 -26 -2 -29 -15 -18 -15 13 -20 42 -9 53 13 12 24 -4 24 -35z m57
-20 c-2 -13 -4 -5 -4 17 -1 22 1 32 4 23 2 -10 2 -28 0 -40z m-506 9 c-1 -4
-1 -19 -1 -33 0 -14 -4 -23 -10 -19 -14 8 -13 68 1 63 6 -2 10 -7 10 -11z m27
-67 c-4 -78 -18 -78 -17 0 1 33 5 60 10 60 6 0 8 -27 7 -60z m47 -28 c0 -66
-14 -87 -16 -24 l-1 37 -9 -30 c-7 -26 -8 -25 -4 10 3 22 5 48 5 58 0 11 6 17
13 14 8 -2 12 -25 12 -65z m172 -100 c2 -39 0 -62 -6 -62 -6 0 -11 8 -11 19 0
10 -3 40 -7 66 -5 36 -3 47 7 43 7 -2 14 -28 17 -66z m48 -1 c2 -25 0 -29 -10
-21 -7 6 -15 24 -17 40 -4 23 -1 27 10 21 8 -5 16 -23 17 -40z m-455 -90 c25
-50 43 -63 34 -25 -5 19 -3 25 4 20 6 -4 11 -21 10 -39 -1 -22 12 -53 40 -98
23 -37 42 -69 42 -73 0 -3 -36 -6 -80 -6 l-80 0 0 130 c0 72 2 130 5 130 2 0
14 -18 25 -39z"/>
<path d="M1940 1020 c0 -11 5 -20 10 -20 6 0 10 9 10 20 0 11 -4 20 -10 20 -5
0 -10 -9 -10 -20z"/>
<path d="M2064 1660 c0 -129 2 -182 3 -117 2 64 2 170 0 235 -1 64 -3 11 -3
-118z"/>
<path d="M3680 1400 c0 -7 -246 -10 -719 -10 l-718 0 -34 -23 c-22 -15 -39
-38 -49 -65 -15 -44 -15 -41 27 -239 4 -19 1 -23 -17 -23 -22 0 -23 -2 -17
-62 7 -72 41 -180 69 -221 l19 -27 720 0 719 0 0 -65 0 -65 1760 0 1760 0 1
138 1 137 17 -65 c17 -64 17 -65 54 -68 l37 -3 0 263 c0 182 -4 278 -13 313
-13 49 -14 50 -55 53 -34 3 -42 7 -42 23 0 19 -24 19 -1760 19 -1167 0 -1760
-3 -1760 -10z m-1440 -85 c0 -19 -4 -35 -9 -35 -18 0 -22 -39 -7 -69 9 -17 16
-51 16 -77 l0 -47 -19 24 c-40 52 -53 91 -49 145 7 82 68 135 68 59z m5020
-195 c0 -223 -1 -230 -20 -230 -19 0 -20 7 -20 230 0 223 1 230 20 230 19 0
20 -7 20 -230z m-53 -137 c-2 -21 -4 -6 -4 32 0 39 2 55 4 38 2 -18 2 -50 0
-70z m-4997 19 c0 -10 7 -27 15 -38 14 -18 21 -84 9 -84 -20 0 -44 25 -58 60
-23 59 -21 80 9 80 17 0 25 -5 25 -18z"/>
<path d="M1030 1005 c0 -13 23 -15 143 -17 l142 -2 -145 -6 -145 -6 148 -2
147 -2 0 25 0 25 -145 0 c-122 0 -145 -2 -145 -15z"/>
<path d="M1073 873 c-35 -3 -43 -8 -43 -24 0 -31 61 -26 77 6 6 14 10 24 10
23 -1 -1 -21 -3 -44 -5z"/>
<path d="M1043 793 c9 -2 23 -2 30 0 6 3 -1 5 -18 5 -16 0 -22 -2 -12 -5z"/>
<path d="M1133 135 c0 -27 2 -38 4 -22 2 15 2 37 0 50 -2 12 -4 0 -4 -28z"/>
</g>
</svg>
